<?xml version="1.0" encoding="UTF-8"?>
<svg version="1.1" xmlns="http://www.w3.org/2000/svg" width="290" height="294">
<path d="M0 0 C-3.73219323 2.05847771 -7.7134656 3.31255403 -11.75 4.625 C-12.44738281 4.85445313 -13.14476563 5.08390625 -13.86328125 5.3203125 C-15.57462336 5.88294552 -17.2871918 6.44184608 -19 7 C2.72968582 -0.31287504 29.08960755 -1.38266516 51 6 C51.63566895 6.20898926 52.27133789 6.41797852 52.92626953 6.63330078 C67.33012371 11.51999591 86.31119266 19.96678899 95 33 C90.25 31.125 90.25 31.125 88 30 C88.33 31.32 88.66 32.64 89 34 C86.5625 33.1875 86.5625 33.1875 84 32 C83.67 31.01 83.34 30.02 83 29 C80.24634248 27.9181235 80.24634248 27.9181235 77 27 C74.88888782 26.07824679 72.78510658 25.1395873 70.6875 24.1875 C37.67032115 9.69389673 1.87417069 10.16044239 -31.625 22.75 C-35.07492087 23.9537854 -35.07492087 23.9537854 -38 26 C-37.24219132 29.54913411 -36.36879728 33.0510938 -35.47070312 36.56640625 C-33.45497325 44.69956024 -33.45497325 44.69956024 -34 48 C-35.50390625 49.51953125 -35.50390625 49.51953125 -37.5625 50.8125 C-49.23928447 58.91391507 -52.29519767 68.41572477 -56 82 C-63.92 82 -71.84 82 -80 82 C-80.33 85.3 -80.66 88.6 -81 92 C-81.18895052 93.76835282 -81.37878611 95.53661182 -81.5703125 97.3046875 C-85.55521465 136.07006488 -78.29101894 178.49289225 -54 210.0625 C-52.36139069 212.06495799 -50.69489772 214.04495519 -49 216 C-48.57251465 216.49757812 -48.1450293 216.99515625 -47.70458984 217.5078125 C-25.6591242 242.99201139 2.90830532 262.46449764 35 273 C35 273.33 35 273.66 35 274 C14.02523315 278.96124462 -11.44740038 265.42699468 -29 255 C-38.96131506 248.78407808 -47.67898817 241.24920755 -56 233 C-57.29357422 231.72576172 -57.29357422 231.72576172 -58.61328125 230.42578125 C-70.3386613 218.21418129 -79.11712222 203.39064801 -86 188 C-86.46921875 186.96101562 -86.9384375 185.92203125 -87.421875 184.8515625 C-93.30347379 170.72846416 -97.06913048 154.48304899 -97.23828125 139.1796875 C-97.24798447 138.4470015 -97.25768768 137.71431549 -97.26768494 136.95942688 C-97.29253167 134.59789498 -97.30520311 132.23664944 -97.3125 129.875 C-97.31511841 129.06898346 -97.31773682 128.26296692 -97.32043457 127.43252563 C-97.32491984 114.54745751 -96.31917219 102.49701743 -93 90 C-92.61398671 88.46890029 -92.22856374 86.93765163 -91.84375 85.40625 C-90.95080873 81.92118967 -89.99821665 78.45659064 -89 75 C-89.66 75 -90.32 75 -91 75 C-91.26167969 75.84820312 -91.52335937 76.69640625 -91.79296875 77.5703125 C-93.05859217 81.16648519 -94.62594873 84.45702248 -96.3125 87.875 C-113.40834911 123.7513257 -111.15025821 162.34173127 -98.25 199.0625 C-94.50253403 209.44141701 -90.49983619 219.42754931 -85 229 C-84.63471191 229.64791504 -84.26942383 230.29583008 -83.89306641 230.96337891 C-75.83630849 245.09081022 -65.68615725 257.73961959 -53 268 C-56.94280173 268 -58.24652802 266.59849678 -61.375 264.25 C-62.31085937 263.55390625 -63.24671875 262.8578125 -64.2109375 262.140625 C-66.83512814 260.12654031 -69.42610221 258.07783749 -72 256 C-68.0580583 260.88049925 -63.88049925 265.0580583 -59 269 C-69.07769377 269 -80.50750533 254.41704819 -87.55859375 247.484375 C-110.0901621 223.97944289 -125.87560164 188.9476095 -126.23828125 156.1796875 C-126.25297203 155.08086243 -126.25297203 155.08086243 -126.26795959 153.95983887 C-126.43794281 137.94693349 -126.4029327 122.53089276 -122 107 C-121.78569336 106.2260791 -121.57138672 105.4521582 -121.35058594 104.65478516 C-117.11797826 89.8036923 -110.68710131 76.03431076 -101.61791992 63.51464844 C-100.3343843 61.73768145 -100.3343843 61.73768145 -99 59 C-99.81724997 55.67770121 -101.91265974 53.94486306 -104.5 51.8125 C-105.41265625 51.04873047 -105.41265625 51.04873047 -106.34375 50.26953125 C-107.98469533 48.92882362 -107.98469533 48.92882362 -110 48 C-109.33577179 40.12668156 -107.80652071 32.47254014 -106.15356445 24.7590332 C-105.84053735 23.28375564 -105.53530391 21.80680472 -105.23754883 20.32836914 C-104.80378204 18.1747135 -104.34798651 16.02681777 -103.88671875 13.87890625 C-103.62076904 12.6060376 -103.35481934 11.33316895 -103.08081055 10.02172852 C-102 7 -102 7 -99.88208008 5.57006836 C-98.95045044 5.28788452 -98.95045044 5.28788452 -98 5 C-97.57589844 5.53109375 -97.15179688 6.0621875 -96.71484375 6.609375 C-96.12832031 7.31578125 -95.54179688 8.0221875 -94.9375 8.75 C-94.08478516 9.79414063 -94.08478516 9.79414063 -93.21484375 10.859375 C-86.61447674 17.23856569 -80.93761364 17.65511936 -72.0625 17.5625 C-71.01642578 17.58634766 -69.97035156 17.61019531 -68.89257812 17.63476562 C-60.67190504 17.61926467 -55.79086047 15.65648295 -49.90625 9.98046875 C-49.21015625 9.09294922 -49.21015625 9.09294922 -48.5 8.1875 C-48.0153125 7.58292969 -47.530625 6.97835938 -47.03125 6.35546875 C-46.6909375 5.90816406 -46.350625 5.46085938 -46 5 C-44.0625 5.75 -44.0625 5.75 -42 7 C-41.25 9.125 -41.25 9.125 -41 11 C-40.16082031 10.62488281 -39.32164063 10.24976563 -38.45703125 9.86328125 C-30.71972362 6.57098636 -23.06271204 4.06657797 -14.875 2.125 C-13.52498901 1.80269409 -13.52498901 1.80269409 -12.14770508 1.47387695 C-7.98970907 0.52608406 -4.28367622 -0.10669064 0 0 Z M-24 8 C-24.66 8.66 -25.32 9.32 -26 10 C-24.35 9.67 -22.7 9.34 -21 9 C-21.99 8.67 -22.98 8.34 -24 8 Z M-98 17 C-99.98 25.91 -101.96 34.82 -104 44 C-102.2675 45.546875 -100.535 47.09375 -98.75 48.6875 C-89.20941644 57.20587818 -86.13986901 64.88907666 -83 77 C-75.74 77 -68.48 77 -61 77 C-60.46375 75.246875 -59.9275 73.49375 -59.375 71.6875 C-55.72395266 60.82403283 -50.84969305 52.43046384 -41.83544922 45.28393555 C-39.68662692 43.11878387 -39.68662692 43.11878387 -40.09667969 40.15917969 C-40.50515137 38.55671387 -40.50515137 38.55671387 -40.921875 36.921875 C-41.20546875 35.76171875 -41.4890625 34.6015625 -41.78125 33.40625 C-42.1009375 32.1996875 -42.420625 30.993125 -42.75 29.75 C-43.05421875 28.52796875 -43.3584375 27.3059375 -43.671875 26.046875 C-44.4272533 23.02536179 -45.20390289 20.01099369 -46 17 C-49.02593678 18.15343191 -51.74150176 19.42041012 -54.5078125 21.08984375 C-60.07864839 23.89876733 -65.75639299 23.6219379 -71.875 23.5625 C-73.55529297 23.59827148 -73.55529297 23.59827148 -75.26953125 23.63476562 C-83.12620679 23.62101415 -88.26652899 21.90736728 -95 18 C-95.99 17.67 -96.98 17.34 -98 17 Z " fill="#D9642B" transform="translate(126,1)"/>
<path d="M0 0 C22.49854226 16.40518707 39.38862071 37.4075756 50.75 62.8125 C51.21921875 63.85148437 51.6884375 64.89046875 52.171875 65.9609375 C58.05352826 80.08416661 61.81890051 96.32934664 61.98828125 111.6328125 C62.00297203 112.73163757 62.00297203 112.73163757 62.01795959 113.85266113 C62.26398644 137.02909423 59.70193657 156.93855756 51.75 178.8125 C51.42 179.8025 51.09 180.7925 50.75 181.8125 C70.81769965 148.45320707 79.10250802 111.14215601 69.76586914 72.75976562 C65.07820611 55.23746425 58.80554487 37.57365248 49.75 21.8125 C49.20206787 20.84062744 49.20206787 20.84062744 48.64306641 19.84912109 C40.58630849 5.72168978 30.43615725 -6.92711959 17.75 -17.1875 C21.69280173 -17.1875 22.99652802 -15.78599678 26.125 -13.4375 C27.06085938 -12.74140625 27.99671875 -12.0453125 28.9609375 -11.328125 C31.58512814 -9.31404031 34.17610221 -7.26533749 36.75 -5.1875 C32.8080583 -10.06799925 28.63049925 -14.2455583 23.75 -18.1875 C33.82769377 -18.1875 45.25750533 -3.60454819 52.30859375 3.328125 C74.8401621 26.83305711 90.62560164 61.8648905 90.98828125 94.6328125 C91.00297203 95.73163757 91.00297203 95.73163757 91.01795959 96.85266113 C91.18794281 112.86556651 91.1529327 128.28160724 86.75 143.8125 C86.53569336 144.5864209 86.32138672 145.3603418 86.10058594 146.15771484 C79.47549112 169.4034078 67.07256399 190.10980706 50.75 207.8125 C50.07453125 208.55886719 49.3990625 209.30523437 48.703125 210.07421875 C28.340163 231.52494582 -1.21214411 246.19795701 -30.25 250.8125 C-31.91612053 250.85516346 -33.58437171 250.8713233 -35.25 250.8125 C-31.51780677 248.75402229 -27.5365344 247.49994597 -23.5 246.1875 C-22.80261719 245.95804687 -22.10523438 245.72859375 -21.38671875 245.4921875 C-19.67537664 244.92955448 -17.9628082 244.37065392 -16.25 243.8125 C-37.97968582 251.12537504 -64.33960755 252.19516516 -86.25 244.8125 C-87.20350342 244.49901611 -87.20350342 244.49901611 -88.17626953 244.17919922 C-102.58012371 239.29250409 -121.56119266 230.84571101 -130.25 217.8125 C-125.5 219.6875 -125.5 219.6875 -123.25 220.8125 C-123.58 219.4925 -123.91 218.1725 -124.25 216.8125 C-121.8125 217.625 -121.8125 217.625 -119.25 218.8125 C-118.92 219.8025 -118.59 220.7925 -118.25 221.8125 C-115.49634248 222.8943765 -115.49634248 222.8943765 -112.25 223.8125 C-110.13888782 224.73425321 -108.03510658 225.6729127 -105.9375 226.625 C-73.70487553 240.77420619 -38.08993008 240.96197781 -5.25366211 228.67480469 C8.83892173 223.14399206 26.12199459 215.55886661 32.72973633 200.98999023 C33.04579834 200.25079346 33.36186035 199.51159668 33.6875 198.75 C34.1973645 197.57449585 34.1973645 197.57449585 34.7175293 196.37524414 C51.48256264 156.58533984 51.89059979 111.61109512 35.7578125 71.4453125 C30.08759002 58.04763105 23.23574308 45.86469606 13.75 34.8125 C13.32106445 34.31202148 12.89212891 33.81154297 12.45019531 33.29589844 C-9.5963366 7.81736378 -38.16181956 -11.65315134 -70.25 -22.1875 C-70.25 -22.5175 -70.25 -22.8475 -70.25 -23.1875 C-47.25044266 -28.55543977 -18.45599125 -12.4223018 0 0 Z M47.75 185.8125 C48.75 187.8125 48.75 187.8125 48.75 187.8125 Z M41.75 188.8125 C42.75 190.8125 42.75 190.8125 42.75 190.8125 Z M40.75 190.8125 C41.75 192.8125 41.75 192.8125 41.75 192.8125 Z M39.75 192.8125 C35.295 199.7425 35.295 199.7425 30.75 206.8125 C31.41 207.4725 32.07 208.1325 32.75 208.8125 C36.47006826 204.693853 39.05824355 200.09534682 40.75 194.8125 C40.42 194.1525 40.09 193.4925 39.75 192.8125 Z M-12.25 240.8125 C-12.91 241.4725 -13.57 242.1325 -14.25 242.8125 C-12.6 242.4825 -10.95 242.1525 -9.25 241.8125 C-10.24 241.4825 -11.23 241.1525 -12.25 240.8125 Z " fill="#FEFBFA" transform="translate(199.25,42.1875)"/>
<path d="M0 0 C6.22993174 0.33769723 11.87404676 0.98020262 17.734375 3.18359375 C19.56727662 3.84407037 21.43470178 4.40822093 23.30859375 4.94140625 C46.96109102 11.72429171 66.18635481 24.23235177 84 41 C84.60070312 41.54785156 85.20140625 42.09570312 85.8203125 42.66015625 C105.34930597 61.14457565 117.47216142 87.33865889 124 113 C124.17934082 113.68433105 124.35868164 114.36866211 124.54345703 115.07373047 C127.01982422 124.91280211 127.26774721 134.63906501 127.3125 144.75 C127.31813965 145.957771 127.3237793 147.16554199 127.32958984 148.40991211 C127.24018591 159.50281844 125.67569064 170.2464332 123 181 C122.73445313 182.09699219 122.46890625 183.19398438 122.1953125 184.32421875 C118.25768771 199.89573498 113.22354638 218.80866421 101 230 C102.3999616 225.62760808 104.04286078 221.42249412 105.8125 217.1875 C121.73028997 177.95330389 121.84015414 134.05057593 106.0078125 94.6328125 C100.33759002 81.23513105 93.48574308 69.05219606 84 58 C83.57106445 57.49952148 83.14212891 56.99904297 82.70019531 56.48339844 C60.6536634 31.00486378 32.08818044 11.53434866 0 1 C0 0.67 0 0.34 0 0 Z " fill="#FEFDFC" transform="translate(129,19)"/>
<path d="M0 0 C1.65 0 3.3 0 5 0 C4.85703868 1.44013078 4.7137339 2.88022747 4.5703125 4.3203125 C4.47911133 5.2371582 4.38791016 6.15400391 4.29394531 7.09863281 C4.10610319 8.9527157 3.91324044 10.8063013 3.71386719 12.65917969 C-0.55553698 52.40425151 5.99492112 95.56487057 31 128.0625 C32.63860931 130.06495799 34.30510228 132.04495519 36 134 C36.42748535 134.49757812 36.8549707 134.99515625 37.29541016 135.5078125 C59.3408758 160.99201139 87.90830532 180.46449764 120 191 C120 191.33 120 191.66 120 192 C112.26134792 191.57340844 105.26201647 190.2575572 97.875 187.9375 C96.87799072 187.62731934 95.88098145 187.31713867 94.85375977 186.99755859 C56.45161926 174.66379969 26.91098644 147.73899125 8.12890625 112.48828125 C-8.68280195 78.45299673 -12.71396789 38.44686888 -0.76953125 2.2109375 C-0.51558594 1.48132813 -0.26164062 0.75171875 0 0 Z " fill="#FEFDFC" transform="translate(41,83)"/>
<path d="M0 0 C23.43578744 8.25437469 42.88931228 37.61141635 53.33569336 59.0324707 C61.25564578 75.99840532 67.03016199 95.01684122 67.23828125 113.8203125 C67.2480751 114.55286255 67.25786896 115.2854126 67.26795959 116.04016113 C67.43794281 132.05306651 67.4029327 147.46910724 63 163 C62.78569336 163.7739209 62.57138672 164.5478418 62.35058594 165.34521484 C55.72549112 188.5909078 43.32256399 209.29730706 27 227 C26.32453125 227.74636719 25.6490625 228.49273437 24.953125 229.26171875 C8.14216483 246.97070029 -16.18781219 261.32057135 -40 267 C-42.42578125 266.625 -42.42578125 266.625 -44 266 C-42.49373047 265.47212891 -42.49373047 265.47212891 -40.95703125 264.93359375 C-32.89577741 262.04664607 -25.41129267 258.85972927 -17.9453125 254.640625 C-15.33560468 253.1869416 -12.71499879 251.92714575 -10 250.6875 C20.7779517 235.39812917 42.7000087 202.36199985 53.36572266 170.7512207 C60.828952 147.36216629 62.81097455 122.19154815 58 98 C57.87109375 97.33919434 57.7421875 96.67838867 57.609375 95.99755859 C52.37424874 69.80374975 40.42202733 47.8984835 24 27 C23.32807617 26.14124268 23.32807617 26.14124268 22.64257812 25.26513672 C15.78336902 16.55394115 8.70312796 7.91787094 0 1 C0 0.67 0 0.34 0 0 Z " fill="#D9642C" transform="translate(223,23)"/>
<path d="M0 0 C0.66 0.66 1.32 1.32 2 2 C1.34 2 0.68 2 0 2 C0 1.34 0 0.68 0 0 Z M-3.0625 5.125 C-2.381875 5.41375 -1.70125 5.7025 -1 6 C-13.44298222 21.89936617 -31.21186707 31.50021479 -50 38 C-51.11246094 38.41378906 -52.22492188 38.82757813 -53.37109375 39.25390625 C-72.19369458 45.17075887 -97.35874491 44.28113553 -116 38 C-116.63566895 37.79101074 -117.27133789 37.58202148 -117.92626953 37.36669922 C-132.33012371 32.48000409 -151.31119266 24.03321101 -160 11 C-155.25 12.875 -155.25 12.875 -153 14 C-153.33 12.68 -153.66 11.36 -154 10 C-151.5625 10.8125 -151.5625 10.8125 -149 12 C-148.67 12.99 -148.34 13.98 -148 15 C-145.24634248 16.0818765 -145.24634248 16.0818765 -142 17 C-139.88888782 17.92175321 -137.78510658 18.8604127 -135.6875 19.8125 C-103.45390423 33.96213257 -67.8407459 34.14832337 -35.00341797 21.86230469 C-25.874488 18.27907509 -16.24663865 14.24687046 -9 7.5 C-6 5 -6 5 -3.0625 5.125 Z " fill="#FEFBFA" transform="translate(229,249)"/>
<path d="M0 0 C3.0625 1.9375 3.0625 1.9375 5 5 C6.03945854 9.75058323 5.669717 12.94141507 3.0625 17.0625 C-1.03048245 19.65193788 -4.27728347 19.61908269 -9 19 C-10.485 18.505 -10.485 18.505 -12 18 C-15.23990432 19.4225249 -18.11506138 21.49020865 -21.0625 23.4375 C-21.89072266 23.94732422 -22.71894531 24.45714844 -23.57226562 24.98242188 C-27.60553525 27.63079339 -30.31331888 29.44864632 -31.4609375 34.28515625 C-31.72777344 36.12400391 -31.72777344 36.12400391 -32 38 C-33.86315302 40.38483586 -35.1381182 40.85796704 -38.0859375 41.34375 C-42.47657619 41.63548679 -44.42926738 41.41931376 -48.0625 38.75 C-50 36 -50 36 -50 32 C-50.556875 31.95101562 -51.11375 31.90203125 -51.6875 31.8515625 C-56.96567265 31.33444423 -61.88362365 30.39537537 -67 29 C-67.28875 29.639375 -67.5775 30.27875 -67.875 30.9375 C-69 33 -69 33 -71 34 C-71.76828125 33.90460938 -72.5365625 33.80921875 -73.328125 33.7109375 C-79.73943458 32.97380832 -83.55718682 33.8771351 -88.60253906 37.73681641 C-90.93726324 39.66212514 -93.23013939 41.62217155 -95.47241211 43.65454102 C-96.865536 44.88156767 -98.35173605 46.00080457 -99.84375 47.10546875 C-102.19943175 49.17522536 -102.64741881 50.028315 -103.0625 53.0625 C-103.60738017 55.67500584 -103.88929176 56.85829345 -105.5625 59 C-109.40244785 60.57536322 -112.92407462 60.74701123 -117 60 C-120.0625 58.0625 -120.0625 58.0625 -122 55 C-123.03945854 50.24941677 -122.669717 47.05858493 -120.0625 42.9375 C-115.94932635 40.3352881 -112.74063834 40.40636014 -108 41 C-107.36328369 41.22059082 -106.72656738 41.44118164 -106.07055664 41.66845703 C-103.98853371 42.22167474 -103.98853371 42.22167474 -102.32421875 41.05957031 C-101.78410156 40.57069336 -101.24398437 40.08181641 -100.6875 39.578125 C-100.08679688 39.04703125 -99.48609375 38.5159375 -98.8671875 37.96875 C-98.25101563 37.4015625 -97.63484375 36.834375 -97 36.25 C-95.77164524 35.15013423 -94.5424999 34.05115066 -93.3125 32.953125 C-92.73886719 32.43105469 -92.16523437 31.90898438 -91.57421875 31.37109375 C-90 30 -90 30 -87.625 28.390625 C-85.48113551 26.55597173 -85.36773404 25.2580053 -85 22.5 C-84.17361111 18.22916667 -84.17361111 18.22916667 -82.4375 15.9375 C-78.60145379 14.46209761 -75.03970065 14.21649934 -71 15 C-67.9375 17.3125 -67.9375 17.3125 -66 20 C-66 20.99 -66 21.98 -66 23 C-65.443125 23.06058594 -64.88625 23.12117188 -64.3125 23.18359375 C-63.1678125 23.30927734 -63.1678125 23.30927734 -62 23.4375 C-61.18144531 23.52386719 -60.36289063 23.61023438 -59.51953125 23.69921875 C-57.92804802 23.88920977 -56.34016918 24.11630526 -54.76171875 24.39453125 C-52.43029664 24.83032427 -52.43029664 24.83032427 -49 25 C-47.66150329 24.00692179 -46.32848691 23.00642948 -45 22 C-40.78613667 21.5292204 -37.02572242 21.65809253 -33 23 C-29.76009568 21.5774751 -26.88493862 19.50979135 -23.9375 17.5625 C-23.10927734 17.05267578 -22.28105469 16.54285156 -21.42773438 16.01757812 C-17.39446475 13.36920661 -14.68668112 11.55135368 -13.5390625 6.71484375 C-13.27222656 4.87599609 -13.27222656 4.87599609 -13 3 C-9.82078629 -1.06939354 -4.75667487 -0.87177493 0 0 Z M-9 7 C-9.33333333 9.5 -9.33333333 9.5 -9 12 C-7.17296773 14.2491908 -7.17296773 14.2491908 -4.5 14.25 C-1.82703227 14.2491908 -1.82703227 14.2491908 0 12 C0.33333333 9.5 0.33333333 9.5 0 7 C-1.82703227 4.7508092 -1.82703227 4.7508092 -4.5 4.75 C-7.17296773 4.7508092 -7.17296773 4.7508092 -9 7 Z M-80 22 C-80.33333333 24.5 -80.33333333 24.5 -80 27 C-78.17296773 29.2491908 -78.17296773 29.2491908 -75.5 29.25 C-72.82703227 29.2491908 -72.82703227 29.2491908 -71 27 C-70.66666667 24.5 -70.66666667 24.5 -71 22 C-72.82703227 19.7508092 -72.82703227 19.7508092 -75.5 19.75 C-78.17296773 19.7508092 -78.17296773 19.7508092 -80 22 Z M-45 29 C-45.33333333 31.5 -45.33333333 31.5 -45 34 C-43.17296773 36.2491908 -43.17296773 36.2491908 -40.5 36.25 C-37.82703227 36.2491908 -37.82703227 36.2491908 -36 34 C-35.66666667 31.5 -35.66666667 31.5 -36 29 C-37.82703227 26.7508092 -37.82703227 26.7508092 -40.5 26.75 C-43.17296773 26.7508092 -43.17296773 26.7508092 -45 29 Z M-117 48 C-117.33333333 50.5 -117.33333333 50.5 -117 53 C-115.17296773 55.2491908 -115.17296773 55.2491908 -112.5 55.25 C-109.82703227 55.2491908 -109.82703227 55.2491908 -108 53 C-107.66666667 50.5 -107.66666667 50.5 -108 48 C-109.82703227 45.7508092 -109.82703227 45.7508092 -112.5 45.75 C-115.17296773 45.7508092 -115.17296773 45.7508092 -117 48 Z " fill="#0AA2CC" transform="translate(197,84)"/>
<path d="M0 0 C35.04374682 0.75584552 67.57577108 22.62796088 91 47.0625 C101.47298414 58.88249174 109.57122389 72.6247585 116 87 C116.46921875 88.03898437 116.9384375 89.07796875 117.421875 90.1484375 C123.30352826 104.27166661 127.06890051 120.51684664 127.23828125 135.8203125 C127.2480751 136.55286255 127.25786896 137.2854126 127.26795959 138.04016113 C127.43794281 154.05306651 127.4029327 169.46910724 123 185 C122.78569336 185.7739209 122.57138672 186.5478418 122.35058594 187.34521484 C118.20716861 201.88336255 111.96556509 215.77422943 103 228 C102.67 227.34 102.34 226.68 102 226 C102.95075357 223.44845687 103.96679962 220.98886845 105.0625 218.5 C122.09141805 178.53434691 127.82987811 135.3143566 111.93261719 93.82885742 C97.21031549 57.68770551 70.92577954 28.82731204 35 13 C28.41959366 10.23820205 21.86091652 7.95181246 15 6 C12.34466542 5.15291157 9.70322009 4.26646978 7.0625 3.375 C6.37865234 3.14554688 5.69480469 2.91609375 4.99023438 2.6796875 C3.32635536 2.12118266 1.66310981 1.56079121 0 1 C0 0.67 0 0.34 0 0 Z " fill="#F7893B" transform="translate(134,18)"/>
<path d="M0 0 C2 3 2 3 1.890625 6.12890625 C0.80967197 10.82725913 -1.06867023 14.66510843 -3.25 18.9375 C-20.38969451 53.92850149 -20.01597309 91.93547102 -7.55273438 128.35424805 C-3.46378777 139.99349279 0.84766788 151.29188183 7 162 C7.36528809 162.64791504 7.73057617 163.29583008 8.10693359 163.96337891 C16.16369151 178.09081022 26.31384275 190.73961959 39 201 C30.36001786 201 20.49265033 189.40585935 14.40478516 183.43212891 C8.07423423 176.97835558 3.03549961 170.05814731 -1 162 C-1.50789063 161.07832031 -2.01578125 160.15664062 -2.5390625 159.20703125 C-16.67486867 132.71046306 -24.79993971 102.97740176 -24 73 C-23.97292969 71.14761719 -23.97292969 71.14761719 -23.9453125 69.2578125 C-23.03042208 44.66340528 -13.45703539 20.38944756 0 0 Z " fill="#FEFDFD" transform="translate(34,68)"/>
<path d="M0 0 C0.33 1.32 0.66 2.64 1 4 C1.99 4 2.98 4 4 4 C3.731875 5.19625 3.46375 6.3925 3.1875 7.625 C2.79125875 9.4165765 2.39548576 11.20825658 2 13 C1.74734375 14.13308594 1.4946875 15.26617187 1.234375 16.43359375 C0.97140625 17.63113281 0.7084375 18.82867187 0.4375 20.0625 C0.18871094 21.18785156 -0.06007813 22.31320313 -0.31640625 23.47265625 C-7.76092892 61.88639323 1.97894821 102.41961304 23.65063477 134.625 C44.78864481 164.83781275 75.41104847 183.71327311 110.50537109 193.35229492 C113.76426955 194.25979195 116.1569258 195.1046172 119 197 C83.95625318 196.24415448 51.42422892 174.37203912 28 149.9375 C17.52701586 138.11750826 9.42877611 124.3752415 3 110 C2.53078125 108.96101563 2.0615625 107.92203125 1.578125 106.8515625 C-4.30347298 92.72846612 -8.06913423 76.48304756 -8.23828125 61.1796875 C-8.24798447 60.44686554 -8.25768768 59.71404358 -8.26768494 58.95901489 C-8.29252678 56.59762039 -8.30520104 54.23651199 -8.3125 51.875 C-8.31642761 50.6674707 -8.31642761 50.6674707 -8.32043457 49.43554688 C-8.32643597 32.22011373 -6.28147971 16.13805691 0 0 Z " fill="#F7893B" transform="translate(37,79)"/>
<path d="M0 0 C0.79921875 -0.03738281 1.5984375 -0.07476562 2.421875 -0.11328125 C6.66775822 -0.1761315 9.40223031 0.03892127 12.765625 2.7734375 C16.7338072 6.9287981 16.41380075 10.08303763 16.44287109 15.58496094 C16.45513733 16.8584137 16.45513733 16.8584137 16.46765137 18.15759277 C16.49251901 20.9748463 16.50902565 23.79204937 16.5234375 26.609375 C16.52876118 27.57091743 16.53408485 28.53245987 16.53956985 29.52313995 C16.56630852 34.6134003 16.58568036 39.70363607 16.60009766 44.79394531 C16.61673932 50.0510886 16.66151108 55.30760425 16.7124691 60.56451035 C16.74613275 64.60687985 16.75767418 68.6491003 16.76332474 72.69159698 C16.77004059 74.62928306 16.78527132 76.56695921 16.80921555 78.50450897 C16.84084872 81.21934546 16.84090672 83.9324884 16.83349609 86.64746094 C16.84990143 87.44561218 16.86630676 88.24376343 16.88320923 89.06610107 C16.83773562 93.14309055 16.44254177 95.63459462 13.83853149 98.85797119 C9.6344267 102.94594652 6.12608596 102.65207762 0.5 102.75 C-0.29921875 102.78738281 -1.0984375 102.82476562 -1.921875 102.86328125 C-6.16775822 102.9261315 -8.90223031 102.71107873 -12.265625 99.9765625 C-16.2338072 95.8212019 -15.91380075 92.66696237 -15.94287109 87.16503906 C-15.95104858 86.31607056 -15.95922607 85.46710205 -15.96765137 84.59240723 C-15.99251901 81.7751537 -16.00902565 78.95795063 -16.0234375 76.140625 C-16.02876118 75.17908257 -16.03408485 74.21754013 -16.03956985 73.22686005 C-16.06630852 68.1365997 -16.08568036 63.04636393 -16.10009766 57.95605469 C-16.11673932 52.6989114 -16.16151108 47.44239575 -16.2124691 42.18548965 C-16.24613275 38.14312015 -16.25767418 34.1008997 -16.26332474 30.05840302 C-16.27004059 28.12071694 -16.28527132 26.18304079 -16.30921555 24.24549103 C-16.34084872 21.53065454 -16.34090672 18.8175116 -16.33349609 16.10253906 C-16.34990143 15.30438782 -16.36630676 14.50623657 -16.38320923 13.68389893 C-16.33773562 9.60690945 -15.94254177 7.11540538 -13.33853149 3.89202881 C-9.1344267 -0.19594652 -5.62608596 0.09792238 0 0 Z M-9.75 7.375 C-11.95915485 11.48984225 -12.04077057 15.44226652 -12.0246582 20.00756836 C-12.02976913 20.75943924 -12.03488007 21.51131012 -12.04014587 22.28596497 C-12.05400435 24.76233969 -12.053088 27.23843494 -12.05078125 29.71484375 C-12.05467015 31.44210411 -12.05900522 33.16936353 -12.06376648 34.8966217 C-12.07122056 38.51371361 -12.07094324 42.13070789 -12.06567383 45.74780273 C-12.05987925 50.37584433 -12.07681375 55.00348571 -12.1000185 59.63146114 C-12.11477221 63.19774194 -12.11562533 66.76392671 -12.11250877 70.33023262 C-12.11302113 72.03621781 -12.11824275 73.74220849 -12.12832069 75.44816399 C-12.14070021 77.83671733 -12.13388491 80.22449555 -12.12231445 82.61303711 C-12.12995819 83.31296783 -12.13760193 84.01289856 -12.14547729 84.73403931 C-12.09646073 89.32748635 -11.16955858 92.47476923 -8.75 96.375 C-4.77986765 98.87051176 -0.31996837 98.94736394 4.25 98.375 C8.67007717 96.83031605 8.67007717 96.83031605 11.39689636 93.23875427 C12.44909403 89.70666808 12.53754103 86.39266962 12.5246582 82.74243164 C12.52976913 81.99056076 12.53488007 81.23868988 12.54014587 80.46403503 C12.55400435 77.98766031 12.553088 75.51156506 12.55078125 73.03515625 C12.55467015 71.30789589 12.55900522 69.58063647 12.56376648 67.8533783 C12.57122056 64.23628639 12.57094324 60.61929211 12.56567383 57.00219727 C12.55987925 52.37415567 12.57681375 47.74651429 12.6000185 43.11853886 C12.61477221 39.55225806 12.61562533 35.98607329 12.61250877 32.41976738 C12.61302113 30.71378219 12.61824275 29.00779151 12.62832069 27.30183601 C12.64070021 24.91328267 12.63388491 22.52550445 12.62231445 20.13696289 C12.62995819 19.43703217 12.63760193 18.73710144 12.64547729 18.01596069 C12.59646073 13.42251365 11.66955858 10.27523077 9.25 6.375 C3.2796419 2.62220348 -4.14528749 3.50507945 -9.75 7.375 Z " fill="#4511CD" transform="translate(198.75,113.625)"/>
<path d="M0 0 C0.33 0 0.66 0 1 0 C1.06789869 3.87022543 1.08596417 7.42575937 0.51171875 11.26171875 C-2.69129068 34.66080291 1.47130106 59.84497381 9 82 C9.37898438 83.16015625 9.75796875 84.3203125 10.1484375 85.515625 C15.50175051 100.62639505 23.48150946 114.90793716 34 127 C34.71591309 127.82322754 34.71591309 127.82322754 35.44628906 128.66308594 C53.76707732 149.49030126 75.48448877 164.39001003 100 177 C98 178 98 178 94.90234375 177.1015625 C73.49052545 169.35791466 55.46197479 157.72349368 39 142 C38.40316406 141.45472656 37.80632812 140.90945312 37.19140625 140.34765625 C11.72587071 116.29360536 -3.16060673 78.54934113 -4.27734375 44 C-4.56130552 28.95198432 -3.82422552 14.59146241 0 0 Z " fill="#FAC6A0" transform="translate(38,92)"/>
<path d="M0 0 C23.84765574 4.04274545 44.8676609 19.87365235 62 36 C62.60070312 36.54785156 63.20140625 37.09570312 63.8203125 37.66015625 C83.34930597 56.14457565 95.47216142 82.33865889 102 108 C102.17934082 108.68433105 102.35868164 109.36866211 102.54345703 110.07373047 C105.01982422 119.91280211 105.26774721 129.63906501 105.3125 139.75 C105.31813965 140.957771 105.3237793 142.16554199 105.32958984 143.40991211 C105.23979953 154.55076002 103.56723402 165.18094236 101 176 C100.67 176 100.34 176 100 176 C100.10828125 174.29457031 100.10828125 174.29457031 100.21875 172.5546875 C103.05826072 126.24998425 94.74330999 83.08474286 63.79174805 47.23876953 C45.9299693 27.11731756 24.1608828 12.5021224 0 1 C0 0.67 0 0.34 0 0 Z " fill="#FAC6A0" transform="translate(151,24)"/>
<path d="M0 0 C16.82663684 14.22579836 24.01756411 46.99956107 25.79492188 67.97949219 C28.34660726 105.56217264 20.0026327 143.14996758 -4 173 C-4.70769531 173.90878906 -5.41539062 174.81757813 -6.14453125 175.75390625 C-16.53251267 188.83439423 -29.84551527 202.40875164 -45 210 C-45.66 209.67 -46.32 209.34 -47 209 C-45.76636719 208.07380859 -45.76636719 208.07380859 -44.5078125 207.12890625 C-11.90502708 182.48053311 13.65115056 143.96957574 19.67578125 102.8984375 C19.78277344 101.94195312 19.88976562 100.98546875 20 100 C20.0825 99.27272705 20.165 98.5454541 20.25 97.79614258 C23.80746925 64.75743589 15.4158927 34.29289949 1.13452148 4.57324219 C0 2 0 2 0 0 Z " fill="#ECB499" transform="translate(258,65)"/>
<path d="M0 0 C0.79921875 -0.03738281 1.5984375 -0.07476562 2.421875 -0.11328125 C6.66775822 -0.1761315 9.40223031 0.03892127 12.765625 2.7734375 C16.44010231 6.62123921 16.38606063 8.51222825 16.44287109 13.74902344 C16.45513733 14.72986908 16.45513733 14.72986908 16.46765137 15.73052979 C16.49249908 17.89846889 16.5090215 20.06634245 16.5234375 22.234375 C16.52876118 22.97526619 16.53408485 23.71615738 16.53956985 24.47949982 C16.56630146 28.40266383 16.58567441 32.32579606 16.60009766 36.24902344 C16.6134278 39.49280048 16.64126174 42.73594707 16.68212891 45.97949219 C16.73150224 49.89816496 16.75622451 53.81626659 16.76332474 57.73523712 C16.77002927 59.22636395 16.78523084 60.71747844 16.80921555 62.20842743 C17.00843387 75.34409273 17.00843387 75.34409273 13.84228516 79.27441406 C9.4993991 82.79355059 5.91790261 82.65570106 0.5 82.75 C-0.29921875 82.78738281 -1.0984375 82.82476562 -1.921875 82.86328125 C-6.16775822 82.9261315 -8.90223031 82.71107873 -12.265625 79.9765625 C-15.94010231 76.12876079 -15.88606063 74.23777175 -15.94287109 69.00097656 C-15.95104858 68.34707947 -15.95922607 67.69318237 -15.96765137 67.01947021 C-15.99249908 64.85153111 -16.0090215 62.68365755 -16.0234375 60.515625 C-16.02876118 59.77473381 -16.03408485 59.03384262 -16.03956985 58.27050018 C-16.06630146 54.34733617 -16.08567441 50.42420394 -16.10009766 46.50097656 C-16.1134278 43.25719952 -16.14126174 40.01405293 -16.18212891 36.77050781 C-16.23150224 32.85183504 -16.25622451 28.93373341 -16.26332474 25.01476288 C-16.27002927 23.52363605 -16.28523084 22.03252156 -16.30921555 20.54157257 C-16.50843387 7.40590727 -16.50843387 7.40590727 -13.34228516 3.47558594 C-8.9993991 -0.04355059 -5.41790261 0.09429894 0 0 Z M-9.75 7.375 C-11.618724 11.04270928 -12.00585962 14.08679148 -12.0246582 18.17163086 C-12.03419022 19.31309067 -12.04372223 20.45455048 -12.05354309 21.63059998 C-12.05263168 22.85465042 -12.05172028 24.07870087 -12.05078125 25.33984375 C-12.05506638 26.60590958 -12.0593515 27.8719754 -12.06376648 29.17640686 C-12.06950577 31.85203971 -12.07095008 34.52728628 -12.06567383 37.20288086 C-12.05988074 40.62029443 -12.07681387 44.03716574 -12.1000185 47.45448971 C-12.11834953 50.72877006 -12.11456952 54.00302136 -12.11328125 57.27734375 C-12.122491 58.49936996 -12.13170074 59.72139618 -12.14118958 60.98045349 C-12.17387486 69.12194349 -12.17387486 69.12194349 -8.75 76.375 C-4.77986765 78.87051176 -0.31996837 78.94736394 4.25 78.375 C8.72529981 76.81462677 8.72529981 76.81462677 11.39689636 73.12400818 C12.32566443 70.13118187 12.51025292 67.70856719 12.5246582 64.57836914 C12.53419022 63.43690933 12.54372223 62.29544952 12.55354309 61.11940002 C12.55263168 59.89534958 12.55172028 58.67129913 12.55078125 57.41015625 C12.55720894 55.51105751 12.55720894 55.51105751 12.56376648 53.57359314 C12.56950577 50.89796029 12.57095008 48.22271372 12.56567383 45.54711914 C12.55988074 42.12970557 12.57681387 38.71283426 12.6000185 35.29551029 C12.61834953 32.02122994 12.61456952 28.74697864 12.61328125 25.47265625 C12.622491 24.25063004 12.63170074 23.02860382 12.64118958 21.76954651 C12.67387486 13.62805651 12.67387486 13.62805651 9.25 6.375 C3.2796419 2.62220348 -4.14528749 3.50507945 -9.75 7.375 Z " fill="#4159A9" transform="translate(126.75,133.625)"/>
<path d="M0 0 C3.21268956 3.02156639 4.78069403 5.69656718 6 10 C5.03523666 12.76029512 3.72559663 14.58416472 2 17 C0 14 0 14 -1 12 C-14.30560367 34.05280608 -23.59088579 57.98033605 -24 84 C-24.0503229 85.42970371 -24.10112498 86.85939061 -24.15234375 88.2890625 C-24.91907022 116.57788206 -15.50690272 146.27448051 -1.93359375 170.91796875 C-1.62550781 171.60503906 -1.31742188 172.29210937 -1 173 C-1.33 173.66 -1.66 174.32 -2 175 C-24.09493171 142.72707891 -34.10070344 104.42614936 -27.6875 65.45703125 C-27.460625 64.31621094 -27.23375 63.17539063 -27 62 C-26.87109375 61.33919434 -26.7421875 60.67838867 -26.609375 59.99755859 C-22.29420959 38.40674834 -13.56572322 17.47372958 0 0 Z " fill="#ECB59A" transform="translate(35,57)"/>
<path d="M0 0 C2.41609473 2.23311383 3.28874729 3.11488529 3.52734375 6.3359375 C1.08984375 5.5234375 1.08984375 5.5234375 -1.47265625 4.3359375 C-1.96765625 2.8509375 -1.96765625 2.8509375 -2.47265625 1.3359375 C-5.22631377 0.254061 -5.22631377 0.254061 -8.47265625 -0.6640625 C-10.58376843 -1.58581571 -12.68754967 -2.5244752 -14.78515625 -3.4765625 C-47.64816826 -17.90249091 -83.73595868 -17.71799229 -117.03515625 -4.8515625 C-118.04707031 -4.43261719 -119.05898437 -4.01367188 -120.1015625 -3.58203125 C-122.47265625 -2.6640625 -122.47265625 -2.6640625 -124.47265625 -2.6640625 C-124.47265625 -4.3140625 -124.47265625 -5.9640625 -124.47265625 -7.6640625 C-114.06754393 -13.24020647 -103.90983455 -17.68412258 -92.47265625 -20.6640625 C-91.539375 -20.91027344 -90.60609375 -21.15648437 -89.64453125 -21.41015625 C-59.44776763 -27.81151696 -24.07429334 -19.3816646 0 0 Z " fill="#FEFCFB" transform="translate(211.47265625,28.6640625)"/>
<path d="M0 0 C0.79921875 -0.03738281 1.5984375 -0.07476562 2.421875 -0.11328125 C6.66775822 -0.1761315 9.40223031 0.03892127 12.765625 2.7734375 C16.15068566 6.31817083 16.37971368 7.87252274 16.44287109 12.64746094 C16.45893402 13.74910583 16.47499695 14.85075073 16.49154663 15.98577881 C16.53595086 21.03120358 16.57706703 26.07649585 16.60009766 31.12207031 C16.61342106 33.78415107 16.64393202 36.44441594 16.68212891 39.10644531 C16.73688091 42.94099026 16.75877129 46.77449183 16.7734375 50.609375 C16.79610687 51.79706482 16.81877625 52.98475464 16.84213257 54.20843506 C16.81856539 63.42228381 16.81856539 63.42228381 13.84228516 67.11035156 C9.55332207 70.85723625 5.99685373 70.65432691 0.5 70.75 C-0.29921875 70.78738281 -1.0984375 70.82476562 -1.921875 70.86328125 C-6.16775822 70.9261315 -8.90223031 70.71107873 -12.265625 67.9765625 C-15.65068566 64.43182917 -15.87971368 62.87747726 -15.94287109 58.10253906 C-15.95893402 57.00089417 -15.97499695 55.89924927 -15.99154663 54.76422119 C-16.03595086 49.71879642 -16.07706703 44.67350415 -16.10009766 39.62792969 C-16.11342106 36.96584893 -16.14393202 34.30558406 -16.18212891 31.64355469 C-16.23688091 27.80900974 -16.25877129 23.97550817 -16.2734375 20.140625 C-16.29610687 18.95293518 -16.31877625 17.76524536 -16.34213257 16.54156494 C-16.31856539 7.32771619 -16.31856539 7.32771619 -13.34228516 3.63964844 C-9.05332207 -0.10723625 -5.49685373 0.09567309 0 0 Z M-9.75 7.375 C-12.5181718 12.12945751 -12.05583582 17.38210389 -12.05078125 22.71484375 C-12.05506638 23.71455704 -12.0593515 24.71427032 -12.06376648 25.74427795 C-12.06949966 27.85482019 -12.07001751 29.96538218 -12.06567383 32.07592773 C-12.06251451 35.29770749 -12.08598392 38.51856809 -12.11132812 41.74023438 C-12.11360134 43.79426968 -12.11430451 45.84830744 -12.11328125 47.90234375 C-12.122491 48.86188461 -12.13170074 49.82142548 -12.14118958 50.81004333 C-12.1049497 56.07173932 -11.75388842 59.84985633 -8.75 64.375 C-4.77986765 66.87051176 -0.31996837 66.94736394 4.25 66.375 C8.58808767 64.85214658 8.58808767 64.85214658 11.39526367 61.40795898 C12.65074196 56.95300132 12.55514861 52.64286576 12.55078125 48.03515625 C12.55506638 47.03544296 12.5593515 46.03572968 12.56376648 45.00572205 C12.56949966 42.89517981 12.57001751 40.78461782 12.56567383 38.67407227 C12.56251451 35.45229251 12.58598392 32.23143191 12.61132812 29.00976562 C12.61360134 26.95573032 12.61430451 24.90169256 12.61328125 22.84765625 C12.622491 21.88811539 12.63170074 20.92857452 12.64118958 19.93995667 C12.6049497 14.67826068 12.25388842 10.90014367 9.25 6.375 C3.2796419 2.62220348 -4.14528749 3.50507945 -9.75 7.375 Z " fill="#067170" transform="translate(162.75,145.625)"/>
<path d="M0 0 C3.0625 1.9375 3.0625 1.9375 5 5 C6.03945854 9.75058323 5.669717 12.94141507 3.0625 17.0625 C-1.03048245 19.65193788 -4.27728347 19.61908269 -9 19 C-9.99 18.67 -10.98 18.34 -12 18 C-15.23990432 19.4225249 -18.11506138 21.49020865 -21.0625 23.4375 C-21.89072266 23.94732422 -22.71894531 24.45714844 -23.57226562 24.98242188 C-27.60553525 27.63079339 -30.31331888 29.44864632 -31.4609375 34.28515625 C-31.63882813 35.51105469 -31.81671875 36.73695312 -32 38 C-33.86315302 40.38483586 -35.1381182 40.85796704 -38.0859375 41.34375 C-42.47657619 41.63548679 -44.42926738 41.41931376 -48.0625 38.75 C-50 36 -50 36 -50 32 C-50.94875 31.855625 -51.8975 31.71125 -52.875 31.5625 C-56 31 -56 31 -58 30 C-58 29.34 -58 28.68 -58 28 C-58.63808594 27.95101562 -59.27617187 27.90203125 -59.93359375 27.8515625 C-60.75988281 27.77679688 -61.58617187 27.70203125 -62.4375 27.625 C-63.26121094 27.55539063 -64.08492187 27.48578125 -64.93359375 27.4140625 C-65.61550781 27.27742188 -66.29742187 27.14078125 -67 27 C-67.33 26.34 -67.66 25.68 -68 25 C-67.38253906 25.08378906 -66.76507813 25.16757813 -66.12890625 25.25390625 C-56.09651901 26.71676492 -56.09651901 26.71676492 -47 23.4375 C-43.71683848 21.07772766 -39.91609984 21.62497755 -36 22 C-35.01 22.33 -34.02 22.66 -33 23 C-29.76009568 21.5774751 -26.88493862 19.50979135 -23.9375 17.5625 C-23.10927734 17.05267578 -22.28105469 16.54285156 -21.42773438 16.01757812 C-17.39446475 13.36920661 -14.68668112 11.55135368 -13.5390625 6.71484375 C-13.36117187 5.48894531 -13.18328125 4.26304688 -13 3 C-9.82078629 -1.06939354 -4.75667487 -0.87177493 0 0 Z M-9 7 C-9.33333333 9.5 -9.33333333 9.5 -9 12 C-7.17296773 14.2491908 -7.17296773 14.2491908 -4.5 14.25 C-1.82703227 14.2491908 -1.82703227 14.2491908 0 12 C0.33333333 9.5 0.33333333 9.5 0 7 C-1.82703227 4.7508092 -1.82703227 4.7508092 -4.5 4.75 C-7.17296773 4.7508092 -7.17296773 4.7508092 -9 7 Z M-45 29 C-45.33333333 31.5 -45.33333333 31.5 -45 34 C-43.17296773 36.2491908 -43.17296773 36.2491908 -40.5 36.25 C-37.82703227 36.2491908 -37.82703227 36.2491908 -36 34 C-35.66666667 31.5 -35.66666667 31.5 -36 29 C-37.82703227 26.7508092 -37.82703227 26.7508092 -40.5 26.75 C-43.17296773 26.7508092 -43.17296773 26.7508092 -45 29 Z " fill="#B2627D" transform="translate(197,84)"/>
<path d="M0 0 C0.79921875 -0.03738281 1.5984375 -0.07476562 2.421875 -0.11328125 C6.66775822 -0.1761315 9.40223031 0.03892127 12.765625 2.7734375 C18.12066435 8.38107304 16.55148408 16.49195965 16.60009766 23.85888672 C16.61663591 25.69592984 16.64389795 27.53290918 16.68212891 29.36962891 C16.73705503 32.02279936 16.7587963 34.67446163 16.7734375 37.328125 C16.79610687 38.14396057 16.81877625 38.95979614 16.84213257 39.800354 C16.8267854 43.96773432 16.51129901 46.57894475 13.84228516 49.87792969 C9.62814145 53.93728755 6.11702977 53.65223524 0.5 53.75 C-0.29921875 53.78738281 -1.0984375 53.82476562 -1.921875 53.86328125 C-6.16775822 53.9261315 -8.90223031 53.71107873 -12.265625 50.9765625 C-17.62066435 45.36892696 -16.05148408 37.25804035 -16.10009766 29.89111328 C-16.11663591 28.05407016 -16.14389795 26.21709082 -16.18212891 24.38037109 C-16.23705503 21.72720064 -16.2587963 19.07553837 -16.2734375 16.421875 C-16.29610687 15.60603943 -16.31877625 14.79020386 -16.34213257 13.949646 C-16.3267854 9.78226568 -16.01129901 7.17105525 -13.34228516 3.87207031 C-9.12814145 -0.18728755 -5.61702977 0.09776476 0 0 Z M-9.75 7.375 C-12.90010201 13.42472693 -12.0787894 20.16968385 -12.0625 26.8125 C-12.07861328 28.12283203 -12.09472656 29.43316406 -12.11132812 30.78320312 C-12.11197266 32.04970703 -12.11261719 33.31621094 -12.11328125 34.62109375 C-12.11626221 35.77279053 -12.11924316 36.9244873 -12.12231445 38.11108398 C-11.70126322 41.80225375 -10.66762331 44.21009485 -8.75 47.375 C-4.77986765 49.87051176 -0.31996837 49.94736394 4.25 49.375 C8.70056569 47.8223093 8.70056569 47.8223093 11.39526367 44.17553711 C13.09502557 38.60628013 12.57666262 32.71301566 12.5625 26.9375 C12.57861328 25.62716797 12.59472656 24.31683594 12.61132812 22.96679688 C12.61197266 21.70029297 12.61261719 20.43378906 12.61328125 19.12890625 C12.61626221 17.97720947 12.61924316 16.8255127 12.62231445 15.63891602 C12.20126322 11.94774625 11.16762331 9.53990515 9.25 6.375 C3.2796419 2.62220348 -4.14528749 3.50507945 -9.75 7.375 Z " fill="#A60B1D" transform="translate(90.75,162.625)"/>
<path d="M0 0 C0.99 0.495 0.99 0.495 2 1 C-13.17099012 17.61584632 -32.51444905 27.97113025 -54 34 C-54.65911377 34.19577637 -55.31822754 34.39155273 -55.99731445 34.59326172 C-63.35674504 36.53282248 -70.8804744 36.39663803 -78.4375 36.375 C-79.5042244 36.37418427 -79.5042244 36.37418427 -80.59249878 36.37335205 C-91.79692491 36.33394037 -102.32039251 35.59847348 -113 32 C-113.95350342 31.68651611 -113.95350342 31.68651611 -114.92626953 31.36669922 C-129.33012371 26.48000409 -148.31119266 18.03321101 -157 5 C-152.92149948 6.4673572 -149.51638983 8.47288467 -145.875 10.8125 C-140.14070993 14.43780617 -134.26988841 17.38649942 -128 20 C-128 20.66 -128 21.32 -128 22 C-125.00482013 23.01622174 -122.00477899 24.01265994 -119 25 C-117.76636719 25.40992188 -116.53273437 25.81984375 -115.26171875 26.2421875 C-86.50770548 35.65424587 -57.42233289 33.86653607 -30 21 C-26.28845757 19.02168577 -22.78680593 16.81989505 -19.30078125 14.46875 C-17 13 -17 13 -15 13 C-15 12.34 -15 11.68 -15 11 C-13.29565793 9.80696055 -11.53435284 8.69467749 -9.75 7.625 C-6.01806974 5.38386728 -2.96177279 3.20153535 0 0 Z " fill="#D9662E" transform="translate(226,255)"/>
<path d="M0 0 C7.26 0 14.52 0 22 0 C22 3.63 22 7.26 22 11 C19.36 11.66 16.72 12.32 14 13 C14 11.02 14 9.04 14 7 C11.69 7 9.38 7 7 7 C7 8.98 7 10.96 7 13 C7.66 13.33 8.32 13.66 9 14 C8.34 15.65 7.68 17.3 7 19 C10.96 17.515 10.96 17.515 15 16 C15 18.31 15 20.62 15 23 C9.25 26 9.25 26 7 26 C7 31.94 7 37.88 7 44 C2 43 2 43 0 42 C0 28.14 0 14.28 0 0 Z " fill="#F7883A" transform="translate(47,30)"/>
<path d="M0 0 C0.99 0.495 0.99 0.495 2 1 C-22.89701501 17.54203021 -52.7255953 24.1940573 -82.3125 18.4375 C-91.688132 16.47522352 -100.32632726 12.99977655 -109 9 C-105.80226371 7.94839545 -104.0845336 8.06233554 -100.9375 9.1875 C-68.31525181 19.47422352 -35.04717371 15.76734231 -4 2 C-3.24589844 1.59136719 -2.49179688 1.18273437 -1.71484375 0.76171875 C-1.14894531 0.51035156 -0.58304687 0.25898438 0 0 Z " fill="#ECB499" transform="translate(207,268)"/>
<path d="M0 0 C0.495 0.99 0.495 0.99 1 2 C-3.4823964 1.01249888 -7.96133769 0.01427449 -12.4296875 -1.03515625 C-20.6078278 -2.94084806 -28.57953675 -4.73137172 -37 -5 C-37.7307373 -5.03641602 -38.46147461 -5.07283203 -39.21435547 -5.11035156 C-59.77538349 -6.06593146 -78.78863226 -2.42317029 -97.7109375 5.64453125 C-101 7 -101 7 -103 7 C-103 6.34 -103 5.68 -103 5 C-92.59488768 -0.57614397 -82.4371783 -5.02006008 -71 -8 C-70.06671875 -8.24621094 -69.1334375 -8.49242187 -68.171875 -8.74609375 C-46.02570106 -13.44082361 -20.18694906 -10.31449952 0 0 Z " fill="#ECB398" transform="translate(190,16)"/>
<path d="M0 0 C3.0625 1.9375 3.0625 1.9375 5 5 C6.03945854 9.75058323 5.669717 12.94141507 3.0625 17.0625 C-1.03048245 19.65193788 -4.27728347 19.61908269 -9 19 C-9.99 18.67 -10.98 18.34 -12 18 C-14.2807688 19.20622019 -14.2807688 19.20622019 -16.5625 20.9375 C-20.81093394 24 -20.81093394 24 -23 24 C-22.65514457 21.1157546 -22.21744593 20.1792182 -19.93359375 18.296875 C-19.10988281 17.78640625 -18.28617188 17.2759375 -17.4375 16.75 C-16.61121094 16.22921875 -15.78492188 15.7084375 -14.93359375 15.171875 C-14.29550781 14.78515625 -13.65742188 14.3984375 -13 14 C-13.99 13.34 -14.98 12.68 -16 12 C-13.7852349 3.9966443 -13.7852349 3.9966443 -11.375 0.9375 C-7.55654446 -0.56978508 -4.03210291 -0.73897972 0 0 Z M-9 7 C-9.33333333 9.5 -9.33333333 9.5 -9 12 C-7.17296773 14.2491908 -7.17296773 14.2491908 -4.5 14.25 C-1.82703227 14.2491908 -1.82703227 14.2491908 0 12 C0.33333333 9.5 0.33333333 9.5 0 7 C-1.82703227 4.7508092 -1.82703227 4.7508092 -4.5 4.75 C-7.17296773 4.7508092 -7.17296773 4.7508092 -9 7 Z " fill="#B75874" transform="translate(197,84)"/>
<path d="M0 0 C-3.45082618 1.89624607 -6.99275797 2.97202659 -10.75 4.125 C-20.28876173 7.16966449 -29.6569988 11.4379992 -38 17 C-38.99 17 -39.98 17 -41 17 C-39.95619856 13.68611291 -38.9026015 12.94293339 -35.83984375 11.1484375 C-34.54624518 10.54173494 -33.24495535 9.95123412 -31.9375 9.375 C-31.26517334 9.06941162 -30.59284668 8.76382324 -29.90014648 8.44897461 C-25.00126078 6.2845696 -20.30673247 4.83790513 -15 4 C-15 3.34 -15 2.68 -15 2 C-13.43883181 1.66048381 -11.87598662 1.32867456 -10.3125 1 C-9.44238281 0.814375 -8.57226562 0.62875 -7.67578125 0.4375 C-5.06287036 0.01027953 -2.64186962 -0.07616201 0 0 Z " fill="#F7DED3" transform="translate(126,1)"/>
<path d="M0 0 C-2.44535471 2.58508927 -4.56609515 4.75782055 -7.6875 6.5 C-10.5051356 8.32765553 -11.05945489 9.83634827 -12 13 C-12.99 12.67 -13.98 12.34 -15 12 C-17.6569191 12.87914688 -17.6569191 12.87914688 -20 14 C-19.34 13.01 -18.68 12.02 -18 11 C-18 10.01 -18 9.02 -18 8 C-15.5859375 5.95703125 -15.5859375 5.95703125 -12.375 3.8125 C-10.80878906 2.73935547 -10.80878906 2.73935547 -9.2109375 1.64453125 C-5.78244531 -0.111424 -3.78962509 -0.34709779 0 0 Z " fill="#B05E7B" transform="translate(185,97)"/>
<path d="M0 0 C2.38112715 0.42089145 4.70854332 0.89675726 7.0625 1.4375 C8.05733398 1.65889648 8.05733398 1.65889648 9.07226562 1.88476562 C10.71600216 2.25135435 12.35815647 2.62502412 14 3 C14 3.33 14 3.66 14 4 C7.25 5 7.25 5 5 5 C6.32 5.33 7.64 5.66 9 6 C9 6.66 9 7.32 9 8 C9.66 8.33 10.32 8.66 11 9 C7.37 8.34 3.74 7.68 0 7 C-0.66 8.32 -1.32 9.64 -2 11 C-4.125 11.75 -4.125 11.75 -6 12 C-5.360625 10.9275 -4.72125 9.855 -4.0625 8.75 C-2.58124573 6.17345208 -1.56513752 3.93871508 -1 1 C-0.67 0.67 -0.34 0.34 0 0 Z " fill="#4289AE" transform="translate(130,106)"/>
<path d="M0 0 C0.66 0.33 1.32 0.66 2 1 C-4.93 6.94 -4.93 6.94 -12 13 C-12.66 12.67 -13.32 12.34 -14 12 C-10.98473577 6.14684002 -6.88650341 0 0 0 Z " fill="#49BCDB" transform="translate(106,118)"/>
<path d="M0 0 C0.66 0.33 1.32 0.66 2 1 C-1.96730753 5.61023089 -5.64503827 7.3867607 -11.375 9.25 C-12.10460937 9.50523437 -12.83421875 9.76046875 -13.5859375 10.0234375 C-18.0563613 11.54018843 -22.30885076 12.4801365 -27 13 C-23.76735514 10.84490343 -20.47682572 9.56074317 -16.875 8.1875 C-11.51365265 6.1112445 -6.53306688 3.83488166 -1.63671875 0.78515625 C-1.09660156 0.52605469 -0.55648437 0.26695312 0 0 Z " fill="#DB6B36" transform="translate(206,277)"/>
<path d="M0 0 C0.99 0 1.98 0 3 0 C3.625 1.875 3.625 1.875 4 4 C3.34 4.66 2.68 5.32 2 6 C1.87625 6.763125 1.7525 7.52625 1.625 8.3125 C0.84641177 11.6604294 -0.74598407 13.45514331 -3 16 C-3.99 15.67 -4.98 15.34 -6 15 C-5.360625 14.525625 -4.72125 14.05125 -4.0625 13.5625 C-1.46522067 10.33557719 -1.41062202 8.06269875 -1.17578125 4.0234375 C-1 2 -1 2 0 0 Z " fill="#1F97BF" transform="translate(127,102)"/>
<path d="M0 0 C-1.08539063 0.39832031 -2.17078125 0.79664063 -3.2890625 1.20703125 C-4.73444107 1.74200903 -6.17974988 2.27717531 -7.625 2.8125 C-8.33785156 3.07353516 -9.05070312 3.33457031 -9.78515625 3.60351562 C-13.09628103 4.83379593 -16.2324965 6.11624825 -19.3984375 7.69921875 C-22 9 -22 9 -24 9 C-23.04325947 6.58885202 -22.48390212 5.2720079 -20.18408203 3.97924805 C-19.46591309 3.74246338 -18.74774414 3.50567871 -18.0078125 3.26171875 C-17.22019531 2.99939453 -16.43257813 2.73707031 -15.62109375 2.46679688 C-14.79738281 2.20962891 -13.97367188 1.95246094 -13.125 1.6875 C-11.90103516 1.27274414 -11.90103516 1.27274414 -10.65234375 0.84960938 C-3.99411702 -1.30643957 -3.99411702 -1.30643957 0 0 Z " fill="#DB6E39" transform="translate(111,5)"/>
<path d="M0 0 C0.66 0.433125 1.32 0.86625 2 1.3125 C1.01 1.6425 0.02 1.9725 -1 2.3125 C-3.35683902 3.8291112 -5.6432197 5.43133148 -7.94140625 7.03515625 C-10 8.3125 -10 8.3125 -12 8.3125 C-11.62321604 5.73042168 -11.26722299 4.56099241 -9.328125 2.7578125 C-3.66533792 -0.83997327 -3.66533792 -0.83997327 0 0 Z " fill="#B75C77" transform="translate(186,99.6875)"/>
<path d="M0 0 C0.66 0.33 1.32 0.66 2 1 C-0.75134539 3.95514876 -3.39733775 6.1524809 -7 8 C-7.99 8 -8.98 8 -10 8 C-8.61469871 4.57282232 -7.32522773 3.2706507 -4 1.6875 C-3.29875 1.34074219 -2.5975 0.99398438 -1.875 0.63671875 C-1.25625 0.42660156 -0.6375 0.21648438 0 0 Z " fill="#FDF9F8" transform="translate(95,10)"/>
<path d="M0 0 C-3.12621626 3.39417765 -5.56541027 5.6062718 -10 7 C-10 4 -10 4 -8.375 1.8125 C-5.39500988 -0.46170299 -3.66075376 -0.3327958 0 0 Z " fill="#C98196" transform="translate(185,97)"/>
<path d="M0 0 C4.10447699 1.08420147 7.5997941 2.84903104 11.3125 4.875 C7.4405483 6.16565057 4.87017399 5.09824098 1.125 3.9375 C0.14370117 3.64456055 0.14370117 3.64456055 -0.85742188 3.34570312 C-2.46977407 2.86317437 -4.07896289 2.37009795 -5.6875 1.875 C-2.6875 -0.125 -2.6875 -0.125 0 0 Z " fill="#EEBBA3" transform="translate(179.6875,12.125)"/>
<path d="M0 0 C0.33 0.99 0.66 1.98 1 3 C-0.40445835 5.2636564 -2.1967913 7.0208685 -4 9 C-4.66 8.67 -5.32 8.34 -6 8 C-4.26440562 4.942048 -2.61527381 2.36620011 0 0 Z " fill="#2EB3D6" transform="translate(98,122)"/>
<path d="M0 0 C0.66 0.33 1.32 0.66 2 1 C-1.17320782 4.53586014 -3.16743695 6.58578031 -8 7 C-8.33 6.34 -8.66 5.68 -9 5 C-7.54735962 4.1361871 -6.0876837 3.28419546 -4.625 2.4375 C-3.40683594 1.72400391 -3.40683594 1.72400391 -2.1640625 0.99609375 C-1.44992188 0.66738281 -0.73578125 0.33867187 0 0 Z " fill="#DD7644" transform="translate(206,277)"/>
<path d="M0 0 C0.66 0.33 1.32 0.66 2 1 C1.34 2.65 0.68 4.3 0 6 C-0.99 5.67 -1.98 5.34 -3 5 C-5.6569191 5.87914688 -5.6569191 5.87914688 -8 7 C-5.42215154 4.35247996 -3.08351902 2.05567935 0 0 Z " fill="#D48DA0" transform="translate(173,104)"/>
<path d="M0 0 C8.57142857 -0.28571429 8.57142857 -0.28571429 12 2 C7.28400182 2.92470553 4.32734391 3.22923777 0 1 C0 0.67 0 0.34 0 0 Z " fill="#657C9E" transform="translate(132,108)"/>
<path d="M0 0 C2.625 0.9375 2.625 0.9375 5 2 C4.01 2.33 3.02 2.66 2 3 C0.33066942 3.6599679 -1.3364521 4.32558869 -3 5 C-2.625 3.0625 -2.625 3.0625 -2 1 C-1.34 0.67 -0.68 0.34 0 0 Z " fill="#A3617F" transform="translate(183,99)"/>
<path d="M0 0 C4 1 4 1 4 1 Z " fill="#F1C7B2" transform="translate(159,293)"/>
<path d="M0 0 C4 1 4 1 4 1 Z " fill="#F1C7B2" transform="translate(127,0)"/>
<path d="M0 0 C2 1 2 1 2 1 Z " fill="#F78839" transform="translate(157,276)"/>
<path d="M0 0 C2 1 2 1 2 1 Z " fill="#FFFFFF" transform="translate(162,275)"/>
<path d="M0 0 C2 1 2 1 2 1 Z " fill="#D9632A" transform="translate(66,258)"/>
<path d="M0 0 C2 1 2 1 2 1 Z " fill="#FFFFFF" transform="translate(72,257)"/>
<path d="" fill="#6A789B" transform="translate(0,0)"/>
<path d="M0 0 C2 1 2 1 2 1 Z " fill="#FFFFFF" transform="translate(216,36)"/>
<path d="M0 0 C2 1 2 1 2 1 Z " fill="#D9632A" transform="translate(222,35)"/>
<path d="M0 0 C2 1 2 1 2 1 Z " fill="#FFFFFF" transform="translate(126,18)"/>
<path d="M0 0 C2 1 2 1 2 1 Z " fill="#F78839" transform="translate(131,17)"/>
<path d="" fill="#D9632A" transform="translate(0,0)"/>
<path d="" fill="#FFFFFF" transform="translate(0,0)"/>
<path d="" fill="#D9632A" transform="translate(0,0)"/>
<path d="" fill="#FFFFFF" transform="translate(0,0)"/>
<path d="" fill="#D9632A" transform="translate(0,0)"/>
<path d="" fill="#FFFFFF" transform="translate(0,0)"/>
<path d="" fill="#FFFFFF" transform="translate(0,0)"/>
<path d="" fill="#FFFFFF" transform="translate(0,0)"/>
<path d="" fill="#FFFFFF" transform="translate(0,0)"/>
<path d="" fill="#FFFFFF" transform="translate(0,0)"/>
<path d="" fill="#FFFFFF" transform="translate(0,0)"/>
<path d="" fill="#FFFFFF" transform="translate(0,0)"/>
<path d="" fill="#FFFFFF" transform="translate(0,0)"/>
<path d="" fill="#D9632A" transform="translate(0,0)"/>
<path d="" fill="#FFFFFF" transform="translate(0,0)"/>
<path d="" fill="#FFFFFF" transform="translate(0,0)"/>
<path d="" fill="#D9632A" transform="translate(0,0)"/>
<path d="" fill="#FFFFFF" transform="translate(0,0)"/>
<path d="" fill="#D9632A" transform="translate(0,0)"/>
</svg>
