<?xml version="1.0" encoding="UTF-8"?>
<svg version="1.1" xmlns="http://www.w3.org/2000/svg" width="424" height="144">
<path d="M0 0 C50 0 50 0 72 11 C72 28.16 72 45.32 72 63 C69.36 64.32 66.72 65.64 64 67 C66.31 67.99 68.62 68.98 71 70 C71 89.14 71 108.28 71 128 C54 135 54 135 51 135 C51 133.02 51 131.04 51 129 C50.236875 129.33 49.47375 129.66 48.6875 130 C46 131 46 131 43 131 C43 112.52 43 94.04 43 75 C39.04 76.65 35.08 78.3 31 80 C30.01 80 29.02 80 28 80 C28 94.85 28 109.7 28 125 C23.6116042 124.12232084 19.79522729 122.86132618 15.6875 121.1875 C15.06166016 120.93935547 14.43582031 120.69121094 13.79101562 120.43554688 C9.02900876 118.5160918 4.62590405 116.31295203 0 114 C0 76.38 0 38.76 0 0 Z M28 22 C28 32.56 28 43.12 28 54 C36.13177442 51.99832981 36.13177442 51.99832981 43 48 C43.08748207 46.07332493 43.10697334 44.14348139 43.09765625 42.21484375 C43.09443359 41.04501953 43.09121094 39.87519531 43.08789062 38.66992188 C43.07951172 37.43822266 43.07113281 36.20652344 43.0625 34.9375 C43.05798828 33.70193359 43.05347656 32.46636719 43.04882812 31.19335938 C43.03699618 28.12888587 43.01906008 25.06443707 43 22 C38.05 22 33.1 22 28 22 Z " fill="#E77631" transform="translate(348,6)"/>
<path d="M0 0 C1.14452637 0.01047363 2.28905273 0.02094727 3.46826172 0.03173828 C5.37720215 0.04672363 5.37720215 0.04672363 7.32470703 0.06201172 C7.99602661 0.06922241 8.66734619 0.07643311 9.35900879 0.0838623 C11.3364388 0.10150207 13.31399528 0.10253135 15.29150391 0.10302734 C33.42339733 0.13471854 48.44795434 0.42095936 64.39794922 10.10205078 C65.71794922 10.76205078 67.03794922 11.42205078 68.39794922 12.10205078 C68.39794922 47.41205078 68.39794922 82.72205078 68.39794922 119.10205078 C65.42794922 120.42205078 62.45794922 121.74205078 59.39794922 123.10205078 C58.13982422 123.67955078 56.88169922 124.25705078 55.58544922 124.85205078 C52.39794922 126.10205078 52.39794922 126.10205078 48.39794922 126.10205078 C48.39794922 124.12205078 48.39794922 122.14205078 48.39794922 120.10205078 C47.53169922 120.59705078 47.53169922 120.59705078 46.64794922 121.10205078 C44.39794922 122.10205078 44.39794922 122.10205078 40.39794922 122.10205078 C40.39794922 89.43205078 40.39794922 56.76205078 40.39794922 23.10205078 C35.44794922 23.10205078 30.49794922 23.10205078 25.39794922 23.10205078 C25.40016983 24.32599045 25.40239044 25.54993011 25.40467834 26.81095886 C25.42501732 38.3885143 25.43997296 49.96606607 25.44976139 61.54363537 C25.454963 67.49467404 25.46201081 73.4456982 25.47338867 79.39672852 C25.48431478 85.14796909 25.49024653 90.89919578 25.49282646 96.65044594 C25.49466327 98.83628877 25.49824986 101.0221309 25.50367928 103.20796776 C25.55605472 125.18306347 25.55605472 125.18306347 24.39794922 136.10205078 C17.54784755 134.15234267 10.96802007 131.85588899 4.39794922 129.10205078 C4.39794922 128.44205078 4.39794922 127.78205078 4.39794922 127.10205078 C3.63482422 126.95767578 2.87169922 126.81330078 2.08544922 126.66455078 C-0.60205078 126.10205078 -0.60205078 126.10205078 -3.60205078 125.10205078 C-3.62537987 108.95173158 -3.64303001 92.80141782 -3.65386295 76.65108585 C-3.65902589 69.15272014 -3.66606854 61.65436487 -3.67749023 54.15600586 C-3.68743715 47.62274574 -3.69390423 41.08949319 -3.69613928 34.55622572 C-3.69744637 31.09483271 -3.70053214 27.63346136 -3.70778084 24.17207527 C-3.71579485 20.31417552 -3.71604191 16.45629721 -3.71557617 12.59838867 C-3.71917145 11.44249237 -3.72276672 10.28659607 -3.72647095 9.09567261 C-3.72509628 8.05094284 -3.72372162 7.00621307 -3.7223053 5.92982483 C-3.72322709 5.01632798 -3.72414888 4.10283113 -3.72509861 3.16165257 C-3.5389683 0.04616218 -3.14367761 0.12329304 0 0 Z " fill="#E87631" transform="translate(117.60205078125,4.89794921875)"/>
<path d="M0 0 C1.11696762 0.00222061 2.23393524 0.00444122 3.38475037 0.00672913 C4.64598221 0.00680466 5.90721405 0.00688019 7.20666504 0.00695801 C8.59341979 0.01206542 9.98017414 0.01728142 11.3669281 0.02259827 C12.77797394 0.0244625 14.18902042 0.02588638 15.60006714 0.02688599 C19.3204272 0.03071072 23.04074845 0.04054062 26.76109314 0.05158997 C30.55482966 0.06180504 34.34857243 0.06638381 38.14231873 0.07142639 C45.59090416 0.08216294 53.03945758 0.09923882 60.48802185 0.12025452 C60.48802185 1.44025452 60.48802185 2.76025452 60.48802185 4.12025452 C63.12802185 4.12025452 65.76802185 4.12025452 68.48802185 4.12025452 C68.48802185 14.35025452 68.48802185 24.58025452 68.48802185 35.12025452 C65.74489685 36.27525452 63.00177185 37.43025452 60.17552185 38.62025452 C59.31531433 38.98570374 58.45510681 39.35115295 57.5688324 39.72767639 C56.8860321 40.01191467 56.20323181 40.29615295 55.4997406 40.58900452 C54.80324402 40.88226624 54.10674744 41.17552795 53.3891449 41.47767639 C51.48802185 42.12025452 51.48802185 42.12025452 48.48802185 42.12025452 C48.48802185 40.14025452 48.48802185 38.16025452 48.48802185 36.12025452 C47.72489685 36.45025452 46.96177185 36.78025452 46.17552185 37.12025452 C43.48802185 38.12025452 43.48802185 38.12025452 40.48802185 38.12025452 C40.48802185 33.17025452 40.48802185 28.22025452 40.48802185 23.12025452 C35.20802185 23.12025452 29.92802185 23.12025452 24.48802185 23.12025452 C24.48802185 34.01025452 24.48802185 44.90025452 24.48802185 56.12025452 C29.10802185 54.14025452 33.72802185 52.16025452 38.48802185 50.12025452 C39.47802185 50.12025452 40.46802185 50.12025452 41.48802185 50.12025452 C41.48802185 52.10025452 41.48802185 54.08025452 41.48802185 56.12025452 C42.25114685 55.79025452 43.01427185 55.46025452 43.80052185 55.12025452 C46.48802185 54.12025452 46.48802185 54.12025452 49.48802185 54.12025452 C49.48802185 60.39025452 49.48802185 66.66025452 49.48802185 73.12025452 C45.69793392 74.6243524 41.90608761 76.12370132 38.11302185 77.62025452 C37.03278748 78.04951233 35.9525531 78.47877014 34.83958435 78.92103577 C33.80833435 79.32709045 32.77708435 79.73314514 31.71458435 80.15150452 C30.76148376 80.5285553 29.80838318 80.90560608 28.82640076 81.29408264 C26.48802185 82.12025452 26.48802185 82.12025452 24.48802185 82.12025452 C24.48802185 90.37025452 24.48802185 98.62025452 24.48802185 107.12025452 C27.78802185 108.11025452 31.08802185 109.10025452 34.48802185 110.12025452 C36.13802185 110.78025452 37.78802185 111.44025452 39.48802185 112.12025452 C39.81802185 103.21025452 40.14802185 94.30025452 40.48802185 85.12025452 C56.48802185 77.12025452 56.48802185 77.12025452 61.48802185 77.12025452 C61.48802185 79.10025452 61.48802185 81.08025452 61.48802185 83.12025452 C62.63270935 82.62525452 62.63270935 82.62525452 63.80052185 82.12025452 C66.48802185 81.12025452 66.48802185 81.12025452 69.48802185 81.12025452 C69.48802185 96.63025452 69.48802185 112.14025452 69.48802185 128.12025452 C59.66086136 133.03383476 59.66086136 133.03383476 56.42552185 134.43275452 C55.65079529 134.77951233 54.87606873 135.12627014 54.0778656 135.48353577 C47.42929646 137.11810103 41.11415764 134.01360417 35.0544281 131.52259827 C34.17649094 131.1688765 33.29855377 130.81515472 32.39401245 130.45071411 C29.60983142 129.32702239 26.830181 128.19257943 24.05052185 127.05775452 C22.15562917 126.29076258 20.26044965 125.52447891 18.36497498 124.75892639 C13.73596374 122.88755029 9.11098304 121.00652411 4.48802185 119.12025452 C4.48802185 118.46025452 4.48802185 117.80025452 4.48802185 117.12025452 C3.72489685 116.97587952 2.96177185 116.83150452 2.17552185 116.68275452 C-0.51197815 116.12025452 -0.51197815 116.12025452 -3.51197815 115.12025452 C-3.53530801 100.27377502 -3.55295775 85.42729795 -3.56379032 70.58080387 C-3.56895309 63.68777924 -3.57599543 56.79476599 -3.5874176 49.90174866 C-3.59842515 43.25579287 -3.60425437 36.60984583 -3.60685539 29.96388054 C-3.60871016 27.42202505 -3.61233175 24.88017025 -3.61770821 22.33831978 C-3.62491482 18.7917399 -3.62596925 15.24520962 -3.62550354 11.69862366 C-3.62909882 10.63623474 -3.63269409 9.57384583 -3.63639832 8.47926331 C-3.63502365 7.51867508 -3.63364899 6.55808685 -3.63223267 5.56838989 C-3.63315446 4.72863648 -3.63407625 3.88888308 -3.63502598 3.02368259 C-3.44415829 0.07114844 -2.96828022 0.14209881 0 0 Z " fill="#E47330" transform="translate(273.51197814941406,4.8797454833984375)"/>
<path d="M0 0 C21.12 0 42.24 0 64 0 C64 1.32 64 2.64 64 4 C66.64 4 69.28 4 72 4 C72 23.47 72 42.94 72 63 C57.375 69.75 57.375 69.75 51.16796875 72.2109375 C49.98227295 72.68321777 48.79657715 73.15549805 47.57495117 73.64208984 C46.12709229 74.2139502 44.6792334 74.78581055 43.1875 75.375 C38.505625 77.23125 33.82375 79.0875 29 81 C29 98.82 29 116.64 29 135 C22.25 133.875 22.25 133.875 19.1328125 132.58984375 C18.47539062 132.32236328 17.81796875 132.05488281 17.140625 131.77929688 C16.47546875 131.50150391 15.8103125 131.22371094 15.125 130.9375 C14.43664062 130.65583984 13.74828125 130.37417969 13.0390625 130.08398438 C11.35710091 129.39484734 9.67822303 128.69819202 8 128 C8 127.34 8 126.68 8 126 C7.05125 125.855625 6.1025 125.71125 5.125 125.5625 C2 125 2 125 0 124 C0 83.08 0 42.16 0 0 Z M28 22 C28 32.56 28 43.12 28 54 C36.75086356 51.22145461 36.75086356 51.22145461 44 48 C44 39.42 44 30.84 44 22 C38.72 22 33.44 22 28 22 Z " fill="#E87631" transform="translate(192,6)"/>
<path d="M0 0 C1.11696762 0.00222061 2.23393524 0.00444122 3.38475037 0.00672913 C4.64598221 0.00680466 5.90721405 0.00688019 7.20666504 0.00695801 C8.59341979 0.01206542 9.98017414 0.01728142 11.3669281 0.02259827 C12.77797394 0.0244625 14.18902042 0.02588638 15.60006714 0.02688599 C19.3204272 0.03071072 23.04074845 0.04054062 26.76109314 0.05158997 C30.55482966 0.06180504 34.34857243 0.06638381 38.14231873 0.07142639 C45.59090416 0.08216294 53.03945758 0.09923882 60.48802185 0.12025452 C60.48802185 1.44025452 60.48802185 2.76025452 60.48802185 4.12025452 C63.12802185 4.12025452 65.76802185 4.12025452 68.48802185 4.12025452 C68.48802185 14.35025452 68.48802185 24.58025452 68.48802185 35.12025452 C65.74489685 36.27525452 63.00177185 37.43025452 60.17552185 38.62025452 C59.31531433 38.98570374 58.45510681 39.35115295 57.5688324 39.72767639 C56.8860321 40.01191467 56.20323181 40.29615295 55.4997406 40.58900452 C54.80324402 40.88226624 54.10674744 41.17552795 53.3891449 41.47767639 C51.48802185 42.12025452 51.48802185 42.12025452 48.48802185 42.12025452 C48.48802185 40.14025452 48.48802185 38.16025452 48.48802185 36.12025452 C47.72489685 36.45025452 46.96177185 36.78025452 46.17552185 37.12025452 C43.48802185 38.12025452 43.48802185 38.12025452 40.48802185 38.12025452 C40.48802185 33.17025452 40.48802185 28.22025452 40.48802185 23.12025452 C35.20802185 23.12025452 29.92802185 23.12025452 24.48802185 23.12025452 C24.48802185 34.01025452 24.48802185 44.90025452 24.48802185 56.12025452 C29.10802185 54.14025452 33.72802185 52.16025452 38.48802185 50.12025452 C39.47802185 50.12025452 40.46802185 50.12025452 41.48802185 50.12025452 C41.48802185 52.10025452 41.48802185 54.08025452 41.48802185 56.12025452 C42.25114685 55.79025452 43.01427185 55.46025452 43.80052185 55.12025452 C46.48802185 54.12025452 46.48802185 54.12025452 49.48802185 54.12025452 C49.48802185 60.39025452 49.48802185 66.66025452 49.48802185 73.12025452 C41.56802185 76.09025452 33.64802185 79.06025452 25.48802185 82.12025452 C25.15802185 99.94025452 24.82802185 117.76025452 24.48802185 136.12025452 C13.23802185 132.74525452 13.23802185 132.74525452 8.86302185 130.93275452 C7.60618591 130.41648499 7.60618591 130.41648499 6.32395935 129.88978577 C5.71809998 129.63584045 5.1122406 129.38189514 4.48802185 129.12025452 C4.48802185 128.46025452 4.48802185 127.80025452 4.48802185 127.12025452 C3.72489685 126.97587952 2.96177185 126.83150452 2.17552185 126.68275452 C-0.51197815 126.12025452 -0.51197815 126.12025452 -3.51197815 125.12025452 C-3.53530724 108.96993531 -3.55295737 92.81962155 -3.56379032 76.66928959 C-3.56895326 69.17092387 -3.57599591 61.67256861 -3.5874176 54.17420959 C-3.59736452 47.64094948 -3.60383159 41.10769693 -3.60606664 34.57442945 C-3.60737374 31.11303645 -3.61045951 27.65166509 -3.61770821 24.19027901 C-3.62572222 20.33237925 -3.62596928 16.47450095 -3.62550354 12.61659241 C-3.62909882 11.46069611 -3.63269409 10.3047998 -3.63639832 9.11387634 C-3.63502365 8.06914658 -3.63364899 7.02441681 -3.63223267 5.94802856 C-3.63315446 5.03453172 -3.63407625 4.12103487 -3.63502598 3.1798563 C-3.45196984 0.11582218 -3.08382845 0.14763038 0 0 Z " fill="#E57330" transform="translate(7.5119781494140625,4.8797454833984375)"/>
<path d="M0 0 C6.6 0 13.2 0 20 0 C20.33 1.32 20.66 2.64 21 4 C22.134375 3.979375 23.26875 3.95875 24.4375 3.9375 C28 4 28 4 29 5 C29.09619441 6.69558703 29.12187659 8.3952084 29.12025452 10.09352112 C29.12162918 11.19714996 29.12300385 12.30077881 29.12442017 13.43785095 C29.12082489 14.65920242 29.11722961 15.88055389 29.11352539 17.13891602 C29.11367142 18.41677979 29.11381744 19.69464355 29.1139679 21.01123047 C29.11425585 24.52553591 29.1083594 28.0398075 29.10139394 31.55410504 C29.09516012 35.22299356 29.09455658 38.89188277 29.09336853 42.56077576 C29.0902553 49.51290435 29.08204202 56.4650173 29.07201904 63.41713899 C29.06085766 71.3299478 29.05534739 79.24275734 29.05032361 87.15557206 C29.0398594 103.43705721 29.02226011 119.71852661 29 136 C25.88074214 135.39726724 22.98088423 134.72440292 20.01171875 133.58984375 C19.30595703 133.32236328 18.60019531 133.05488281 17.87304688 132.77929688 C17.15181641 132.50150391 16.43058594 132.22371094 15.6875 131.9375 C14.94693359 131.65583984 14.20636719 131.37417969 13.44335938 131.08398438 C11.62757345 130.39281425 9.81360101 129.69688311 8 129 C8 128.34 8 127.68 8 127 C7.236875 126.855625 6.47375 126.71125 5.6875 126.5625 C3 126 3 126 0 125 C0 83.75 0 42.5 0 0 Z " fill="#E37430" transform="translate(81,5)"/>
<path d="M0 0 C2.64 0 5.28 0 8 0 C8 19.47 8 38.94 8 59 C-6.625 65.75 -6.625 65.75 -12.83203125 68.2109375 C-14.01772705 68.68321777 -15.20342285 69.15549805 -16.42504883 69.64208984 C-17.87290771 70.2139502 -19.3207666 70.78581055 -20.8125 71.375 C-25.494375 73.23125 -30.17625 75.0875 -35 77 C-35 94.82 -35 112.64 -35 131 C-39.3093986 130.2817669 -42.16324035 129.69268808 -46 128 C-45.01 127.505 -45.01 127.505 -44 127 C-44 108.85 -44 90.7 -44 72 C-37.11125 69.195 -30.2225 66.39 -23.125 63.5 C-20.9505127 62.61248047 -18.77602539 61.72496094 -16.53564453 60.81054688 C-14.81814587 60.11300538 -13.10054239 59.41572189 -11.3828125 58.71875 C-10.48618896 58.35168945 -9.58956543 57.98462891 -8.66577148 57.60644531 C-7.81329834 57.26129883 -6.9608252 56.91615234 -6.08251953 56.56054688 C-5.34083527 56.2585437 -4.599151 55.95654053 -3.83499146 55.64538574 C-2 55 -2 55 0 55 C0 36.85 0 18.7 0 0 Z " fill="#020100" transform="translate(256,10)"/>
<path d="M0 0 C7.92 0 15.84 0 24 0 C24 1.32 24 2.64 24 4 C19.05 4 14.1 4 9 4 C9.00222061 5.22393967 9.00444122 6.44787933 9.00672913 7.70890808 C9.0270681 19.28646352 9.04202375 30.86401529 9.05181217 42.44158459 C9.05701378 48.39262326 9.06406159 54.34364741 9.07543945 60.29467773 C9.08636556 66.04591831 9.09229731 71.797145 9.09487724 77.54839516 C9.09671406 79.73423799 9.10030064 81.92008012 9.10573006 84.10591698 C9.13200974 95.13204916 9.07336498 106.01750776 8 117 C4.7 116.01 1.4 115.02 -2 114 C-1.01 113.505 -1.01 113.505 0 113 C0 75.71 0 38.42 0 0 Z " fill="#040200" transform="translate(134,24)"/>
<path d="M0 0 C2.31 0 4.62 0 7 0 C8 1 8 1 8.12304783 3.16892338 C8.12166514 4.61659926 8.12166514 4.61659926 8.12025452 6.09352112 C8.12162918 7.19714996 8.12300385 8.30077881 8.12442017 9.43785095 C8.12082489 10.65920242 8.11722961 11.88055389 8.11352539 13.13891602 C8.11367142 14.41677979 8.11381744 15.69464355 8.1139679 17.01123047 C8.11425585 20.52553591 8.1083594 24.0398075 8.10139394 27.55410504 C8.09516012 31.22299356 8.09455658 34.89188277 8.09336853 38.56077576 C8.0902553 45.51290435 8.08204202 52.4650173 8.07201904 59.41713899 C8.06085766 67.3299478 8.05534739 75.24275734 8.05032361 83.15557206 C8.0398594 99.43705721 8.02226011 115.71852661 8 132 C4.20088882 131.28159908 0.65341173 130.27444595 -3 129 C-2.01 128.67 -1.02 128.34 0 128 C0 85.76 0 43.52 0 0 Z " fill="#000000" transform="translate(102,9)"/>
<path d="M0 0 C2.64 0.99 5.28 1.98 8 3 C8 38.31 8 73.62 8 110 C5.03 111.32 2.06 112.64 -1 114 C-2.258125 114.5775 -3.51625 115.155 -4.8125 115.75 C-8 117 -8 117 -12 117 C-12 115.02 -12 113.04 -12 111 C-10.730447 110.35165346 -9.45930294 109.70642185 -8.1875 109.0625 C-7.12595703 108.52302734 -7.12595703 108.52302734 -6.04296875 107.97265625 C-4 107 -4 107 -1 106 C-0.67 71.02 -0.34 36.04 0 0 Z " fill="#000000" transform="translate(178,14)"/>
<path d="M0 0 C0 6.27 0 12.54 0 19 C-11.88 23.455 -11.88 23.455 -24 28 C-24.33 45.82 -24.66 63.64 -25 82 C-28.3 81.01 -31.6 80.02 -35 79 C-34.01 78.505 -34.01 78.505 -33 78 C-33 60.18 -33 42.36 -33 24 C-27.33281666 21.48125185 -21.69849781 19.02423076 -15.9375 16.75 C-15.26267578 16.481875 -14.58785156 16.21375 -13.89257812 15.9375 C-12.2623642 15.29003915 -10.63127845 14.64477409 -9 14 C-8.67 10.04 -8.34 6.08 -8 2 C-3 0 -3 0 0 0 Z " fill="#000000" transform="translate(57,59)"/>
<path d="M0 0 C2.64 0.99 5.28 1.98 8 3 C8 22.14 8 41.28 8 61 C-9 68 -9 68 -12 68 C-12 65.69 -12 63.38 -12 61 C-10.56570999 60.32645501 -9.12742943 59.66140299 -7.6875 59 C-6.88699219 58.62875 -6.08648437 58.2575 -5.26171875 57.875 C-3 57 -3 57 0 57 C0 38.19 0 19.38 0 0 Z " fill="#000000" transform="translate(411,73)"/>
<path d="M0 0 C0 15.51 0 31.02 0 47 C-17.89873418 55.94936709 -17.89873418 55.94936709 -25 54 C-27.9375 52.9375 -27.9375 52.9375 -30 52 C-27.62709204 50.41806136 -25.88037799 49.46910132 -23.27734375 48.4921875 C-22.22256836 48.09580078 -22.22256836 48.09580078 -21.14648438 47.69140625 C-20.41751953 47.42199219 -19.68855469 47.15257812 -18.9375 46.875 C-18.20466797 46.59785156 -17.47183594 46.32070312 -16.71679688 46.03515625 C-11.25796644 44 -11.25796644 44 -9 44 C-9 30.47 -9 16.94 -9 3 C-3 0 -3 0 0 0 Z " fill="#070301" transform="translate(343,86)"/>
<path d="M0 0 C0 2.64 0 5.28 0 8 C-1.93467942 8.83986084 -3.87285129 9.67168027 -5.8125 10.5 C-6.89144531 10.9640625 -7.97039062 11.428125 -9.08203125 11.90625 C-12 13 -12 13 -15 13 C-15 27.85 -15 42.7 -15 58 C-18.73069283 57.25386143 -21.57404607 56.46826597 -25 55 C-24.01 54.505 -24.01 54.505 -23 54 C-23 39.15 -23 24.3 -23 9 C-19.57625 7.515 -16.1525 6.03 -12.625 4.5 C-11.54686035 4.03013672 -10.4687207 3.56027344 -9.35791016 3.07617188 C-8.51019043 2.71072266 -7.6624707 2.34527344 -6.7890625 1.96875 C-5.91975098 1.59169922 -5.05043945 1.21464844 -4.15478516 0.82617188 C-2 0 -2 0 0 0 Z " fill="#000000" transform="translate(391,73)"/>
<path d="M0 0 C0 6.27 0 12.54 0 19 C-3.79008793 20.50409789 -7.58193424 22.0034468 -11.375 23.5 C-12.45523437 23.92925781 -13.53546875 24.35851562 -14.6484375 24.80078125 C-16.1953125 25.40986328 -16.1953125 25.40986328 -17.7734375 26.03125 C-18.72653809 26.40830078 -19.67963867 26.78535156 -20.66162109 27.17382812 C-23 28 -23 28 -25 28 C-25 36.25 -25 44.5 -25 53 C-27.64 52.01 -30.28 51.02 -33 50 C-33 41.42 -33 32.84 -33 24 C-20.625 18.375 -20.625 18.375 -14.8125 16.1875 C-13.70519531 15.76855469 -12.59789062 15.34960938 -11.45703125 14.91796875 C-10.64621094 14.61503906 -9.83539063 14.31210938 -9 14 C-8.67 10.04 -8.34 6.08 -8 2 C-3 0 -3 0 0 0 Z " fill="#000000" transform="translate(323,59)"/>
<path d="M0 0 C2.64 0.99 5.28 1.98 8 3 C8 20.16 8 37.32 8 55 C-0.22568093 58.52529183 -0.22568093 58.52529183 -6 57 C-7.32 56.01 -8.64 55.02 -10 54 C-6.7 53.01 -3.4 52.02 0 51 C0 34.17 0 17.34 0 0 Z " fill="#000000" transform="translate(412,14)"/>
<path d="M0 0 C7.92 0 15.84 0 24 0 C24 1.32 24 2.64 24 4 C18.72 4 13.44 4 8 4 C8 15.22 8 26.44 8 38 C5.36 38.99 2.72 39.98 0 41 C0 27.47 0 13.94 0 0 Z " fill="#000000" transform="translate(290,24)"/>
<path d="M0 0 C7.92 0 15.84 0 24 0 C24 1.32 24 2.64 24 4 C18.72 4 13.44 4 8 4 C8 15.22 8 26.44 8 38 C5.36 38.99 2.72 39.98 0 41 C0 27.47 0 13.94 0 0 Z " fill="#000000" transform="translate(24,24)"/>
<path d="M0 0 C7.92 0 15.84 0 24 0 C24 1.32 24 2.64 24 4 C18.72 4 13.44 4 8 4 C8 14.89 8 25.78 8 37 C5.36 37.66 2.72 38.32 0 39 C0 26.13 0 13.26 0 0 Z " fill="#000000" transform="translate(212,24)"/>
<path d="M0 0 C7.59 0 15.18 0 23 0 C23 1.32 23 2.64 23 4 C18.05 4 13.1 4 8 4 C8 14.56 8 25.12 8 36 C2 39 2 39 0 39 C0 26.13 0 13.26 0 0 Z " fill="#000000" transform="translate(368,24)"/>
<path d="M0 0 C2.64 0 5.28 0 8 0 C8 10.23 8 20.46 8 31 C5.256875 32.155 2.51375 33.31 -0.3125 34.5 C-1.60281128 35.04817383 -1.60281128 35.04817383 -2.91918945 35.60742188 C-3.60198975 35.89166016 -4.28479004 36.17589844 -4.98828125 36.46875 C-5.68477783 36.76201172 -6.38127441 37.05527344 -7.09887695 37.35742188 C-9 38 -9 38 -12 38 C-12 35.69 -12 33.38 -12 31 C-8.37 29.35 -4.74 27.7 -1 26 C-0.67 17.42 -0.34 8.84 0 0 Z " fill="#000000" transform="translate(334,9)"/>
<path d="M0 0 C2.64 0 5.28 0 8 0 C8 10.23 8 20.46 8 31 C5.256875 32.155 2.51375 33.31 -0.3125 34.5 C-1.60281128 35.04817383 -1.60281128 35.04817383 -2.91918945 35.60742188 C-3.60198975 35.89166016 -4.28479004 36.17589844 -4.98828125 36.46875 C-5.68477783 36.76201172 -6.38127441 37.05527344 -7.09887695 37.35742188 C-9 38 -9 38 -12 38 C-12 35.69 -12 33.38 -12 31 C-10.3767313 30.3291288 -8.75132422 29.66342971 -7.125 29 C-6.22007813 28.62875 -5.31515625 28.2575 -4.3828125 27.875 C-2 27 -2 27 0 27 C0 18.09 0 9.18 0 0 Z " fill="#000000" transform="translate(68,9)"/>
</svg>
